<?xml version="1.0" encoding="utf-8"?>
<!-- Generator: Adobe Illustrator 19.0.0, SVG Export Plug-In . SVG Version: 6.00 Build 0)  -->
<svg version="1.1" id="Layer_1" xmlns="http://www.w3.org/2000/svg" xmlns:xlink="http://www.w3.org/1999/xlink" x="0px" y="0px"
	 viewBox="-33 35 32 32" style="enable-background:new -33 35 32 32;" xml:space="preserve">
<style type="text/css">
	.st0{fill:#FFFFFF;}
</style>
<g id="Outline_Color_copy_2">
	<path class="st0" d="M-5,36c1.7,0,3,1.3,3,3v24c0,1.7-1.3,3-3,3h-24c-1.7,0-3-1.3-3-3V39c0-1.7,1.3-3,3-3H-5 M-5,35h-24
		c-2.2,0-4,1.8-4,4v24c0,2.2,1.8,4,4,4h24c2.2,0,4-1.8,4-4V39C-1,36.8-2.8,35-5,35L-5,35z"/>
	<path class="st0" d="M-19.4,60.3h3.8V51h2.6l0.3-3.2h-2.9l0-1.6c0-0.8,0.1-1.3,1.3-1.3h1.6v-3.2h-2.6c-3.1,0-4.1,1.5-4.1,4.2v1.9
		h-1.9V51h1.9V60.3z"/>
</g>
</svg>
