<?xml version="1.0" encoding="utf-8"?>
<!-- Generator: Adobe Illustrator 19.0.0, SVG Export Plug-In . SVG Version: 6.00 Build 0)  -->
<svg version="1.1" id="Layer_1" xmlns="http://www.w3.org/2000/svg" xmlns:xlink="http://www.w3.org/1999/xlink" x="0px" y="0px"
	 viewBox="-33 35 32 32" style="enable-background:new -33 35 32 32;" xml:space="preserve">
<style type="text/css">
	.st0{fill:#FFFFFF;}
</style>
<g id="Outline_Color_copy_2">
	<g>
		<path class="st0" d="M-5,36c1.7,0,3,1.3,3,3v24c0,1.7-1.3,3-3,3h-24c-1.7,0-3-1.3-3-3V39c0-1.7,1.3-3,3-3H-5 M-5,35h-24
			c-2.2,0-4,1.8-4,4v24c0,2.2,1.8,4,4,4h24c2.2,0,4-1.8,4-4V39C-1,36.8-2.8,35-5,35L-5,35z"/>
	</g>
	<path class="st0" d="M-14.8,42.2c0,0-4,0-5.4,0c-2.5,0-4.8,1.7-4.8,3.9c0,2.2,1.7,4,4.2,4c0.2,0,0.3,0,0.5-0.1
		c-0.2,0.3-0.3,0.7-0.3,1c0,0.6,0.3,1.1,0.8,1.5c-0.3,0-0.6,0-1,0c-3.1,0-5.5,2-5.5,4c0,2,2.6,3.3,5.7,3.3c3.5,0,5.5-2,5.5-4
		c0-1.6-0.5-2.6-1.9-3.6c-0.5-0.4-1.5-1.2-1.5-1.7c0-0.6,0.2-0.9,1.1-1.6c0.9-0.7,1.6-1.6,1.6-2.7c0-1.4-0.6-3.1-1.8-3.1h2
		L-14.8,42.2z M-16.6,55.5c0,0.2,0.1,0.4,0.1,0.6c0,1.6-1,2.9-4,2.9c-2.1,0-3.7-1.3-3.7-3c0-1.6,1.9-2.9,4-2.9c0.5,0,1,0.1,1.4,0.2
		C-17.7,54.1-16.9,54.6-16.6,55.5z M-20,49.4c-1.4,0-2.8-1.6-3-3.5c-0.2-1.9,0.7-3.3,2.1-3.3c1.4,0,2.8,1.5,3,3.4
		C-17.6,48-18.6,49.5-20,49.4z"/>
	<polygon class="st0" points="-10.4,49.2 -10.4,46.6 -12.2,46.6 -12.2,49.2 -14.8,49.2 -14.8,51 -12.2,51 -12.2,53.6 -10.4,53.6 
		-10.4,51 -7.7,51 -7.7,49.2 	"/>
</g>
</svg>
